<?xml version="1.0" encoding="UTF-8" standalone="no"?>
<svg xmlns:xlink="http://www.w3.org/1999/xlink" height="20.0px" width="20.0px" xmlns="http://www.w3.org/2000/svg">
  <g transform="matrix(1, 0, 0, 1, 0.0, 0.0)">
    <path d="M13.35 11.35 L3.35 11.35 3.35 12.65 13.35 12.65 13.35 11.35 M17.5 8.1 L17.15 5.7 Q18.5 6.85 19.25 8.4 20.0 10.05 20.0 11.85 20.0 15.2 17.6 17.6 15.25 20.0 11.85 20.0 10.1 20.0 8.45 19.2 6.85 18.5 5.75 17.15 L8.1 17.5 Q12.0 17.5 14.8 14.75 17.5 12.0 17.5 8.1 M13.85 2.35 Q16.25 4.7 16.25 8.1 16.25 11.45 13.85 13.85 11.5 16.2 8.1 16.2 4.75 16.2 2.35 13.85 0.0 11.45 0.0 8.1 0.0 4.75 2.35 2.35 4.8 0.0 8.1 0.0 11.5 0.0 13.85 2.35 M13.35 10.65 L13.35 5.1 10.7 7.4 8.2 2.7 5.8 7.4 3.35 5.1 3.35 10.65 13.35 10.65" fill="#cccccc" fill-rule="evenodd" stroke="none"/>
  </g>
</svg>
